<?xml version="1.0" standalone="no"?>
<!DOCTYPE svg PUBLIC "-//W3C//DTD SVG 20010904//EN"
 "http://www.w3.org/TR/2001/REC-SVG-20010904/DTD/svg10.dtd">
<svg version="1.0" xmlns="http://www.w3.org/2000/svg"
 width="134.000000pt" height="134.000000pt" viewBox="0 0 134.000000 134.000000"
 preserveAspectRatio="xMidYMid meet">
<metadata>
Created by potrace 1.10, written by Peter Selinger 2001-2011
</metadata>
<g transform="translate(0.000000,134.000000) scale(0.100000,-0.100000)"
fill="#000000" stroke="none">
<path d="M435 1176 c-110 -35 -213 -112 -292 -220 -67 -91 -57 -99 41 -31 130
91 240 124 351 105 90 -16 277 -72 268 -80 -4 -4 -84 -49 -178 -100 -93 -51
-178 -99 -189 -108 -15 -14 -17 -27 -13 -77 3 -33 9 -70 13 -82 5 -20 -4 -16
-77 27 -94 57 -149 65 -206 30 -144 -87 -55 -299 171 -410 115 -57 216 -80
345 -80 123 0 207 18 299 62 154 73 226 196 174 298 -36 72 -131 102 -203 64
-17 -8 -33 -13 -36 -11 -6 6 123 82 155 92 12 3 22 11 22 17 0 21 -64 -3 -134
-51 -177 -120 -284 -144 -429 -93 -40 14 -47 20 -43 37 3 11 11 45 17 76 l11
55 215 107 214 108 115 -57 c63 -31 116 -55 119 -53 3 4 8 142 6 175 -1 7 -11
15 -23 18 -20 5 -13 12 47 44 81 43 100 73 71 116 -27 41 -64 34 -176 -33 -68
-41 -102 -56 -111 -50 -28 18 -257 88 -338 103 -98 19 -151 19 -206 2z m255
-37 c134 -31 322 -99 274 -99 -6 0 -36 -16 -68 -35 l-58 -35 -88 30 c-247 82
-377 77 -523 -20 -33 -22 -62 -38 -66 -35 -10 11 138 142 197 173 105 56 163
60 332 21z m556 -5 c11 -16 11 -23 1 -36 -6 -9 -162 -89 -345 -177 -422 -202
-419 -201 -427 -249 -4 -20 -10 -48 -14 -62 -7 -21 -9 -17 -15 27 -4 28 -5 61
-1 72 4 12 59 48 153 99 81 44 248 141 372 215 124 75 233 135 244 134 10 -1
25 -11 32 -23z m-115 -154 c16 -9 19 -22 19 -81 0 -39 -3 -69 -7 -67 -5 2 -48
24 -97 48 l-89 44 69 32 c80 37 79 37 105 24z m-847 -353 l29 -13 -51 -33
c-49 -31 -65 -51 -42 -51 5 0 33 16 60 36 74 53 72 35 -2 -26 -65 -55 -78 -70
-58 -70 7 0 41 25 76 56 77 68 98 64 30 -5 -27 -27 -43 -51 -38 -55 6 -3 30
16 54 44 38 44 68 63 68 44 0 -4 -27 -35 -60 -71 -34 -36 -57 -69 -54 -75 7
-11 23 4 96 92 45 55 59 49 18 -8 -16 -23 -30 -46 -30 -52 0 -21 16 -8 49 40
23 34 37 47 45 41 21 -17 120 -41 170 -41 71 0 170 23 263 60 118 48 186 31
219 -56 14 -37 15 -51 6 -82 -41 -138 -277 -244 -507 -228 -212 14 -400 109
-487 245 -49 78 -33 171 34 204 39 20 72 21 112 4z"/>
</g>
</svg>
