<?xml version="1.0" standalone="no"?>
<!DOCTYPE svg PUBLIC "-//W3C//DTD SVG 20010904//EN"
 "http://www.w3.org/TR/2001/REC-SVG-20010904/DTD/svg10.dtd">
<svg version="1.0" xmlns="http://www.w3.org/2000/svg"
 width="134.000000pt" height="134.000000pt" viewBox="0 0 134.000000 134.000000"
 preserveAspectRatio="xMidYMid meet">
<metadata>
Created by potrace 1.10, written by Peter Selinger 2001-2011
</metadata>
<g transform="translate(0.000000,134.000000) scale(0.100000,-0.100000)"
fill="#000000" stroke="none">
<path d="M776 1078 c-182 -146 -198 -165 -180 -217 8 -22 4 -30 -29 -60 -21
-19 -45 -48 -54 -65 -8 -17 -42 -58 -74 -91 -53 -55 -58 -63 -46 -79 13 -18
17 -17 89 22 42 23 88 42 103 42 15 0 51 13 79 29 46 26 53 28 70 15 44 -32
74 -19 261 111 98 69 183 131 187 138 20 31 6 67 -58 153 -93 124 -113 144
-145 144 -20 0 -73 -37 -203 -142z m243 93 c46 -49 151 -198 151 -214 0 -19
-32 -44 -222 -175 -140 -97 -168 -111 -194 -94 -16 9 -128 162 -137 185 -3 9
-4 24 0 33 8 21 343 294 361 294 8 0 26 -13 41 -29z m-356 -407 c22 -31 37
-57 35 -58 -34 -25 -103 -56 -124 -56 -15 0 -55 -16 -90 -35 -34 -19 -66 -35
-70 -35 -4 0 23 31 59 69 37 38 67 74 67 80 0 11 69 88 80 90 3 0 22 -25 43
-55z"/>
<path d="M831 1042 c-38 -21 -71 -73 -71 -113 0 -33 38 -90 70 -106 14 -7 42
-13 64 -13 31 0 45 7 77 39 32 32 39 46 39 77 0 48 -29 98 -69 119 -39 20 -69
19 -110 -3z m137 -47 c35 -40 30 -89 -13 -132 -32 -32 -40 -35 -76 -30 -121
16 -128 167 -9 200 26 7 74 -12 98 -38z"/>
<path d="M90 556 c0 -10 9 -16 23 -16 12 -1 35 -6 51 -13 l28 -12 -71 -49
c-67 -47 -85 -66 -60 -66 6 0 43 23 80 51 41 30 75 49 84 45 23 -9 18 -18 -36
-59 -27 -21 -47 -43 -43 -48 3 -5 32 11 64 37 44 34 63 44 75 37 13 -8 2 -21
-59 -73 -65 -53 -93 -90 -70 -90 3 0 40 31 82 70 69 62 102 83 102 64 0 -4
-20 -29 -46 -56 -26 -28 -42 -53 -38 -60 5 -7 26 9 60 48 35 39 56 56 63 49 7
-7 -8 -34 -44 -82 -30 -40 -55 -77 -55 -83 0 -24 20 -5 74 69 39 54 62 78 72
74 12 -4 11 -11 -7 -42 -12 -20 -26 -40 -31 -45 -11 -13 -10 -49 1 -42 5 3 23
31 40 61 21 37 35 53 45 49 12 -5 8 -20 -20 -81 -35 -77 -41 -103 -25 -103 5
0 24 37 42 81 30 73 51 101 64 87 3 -3 -3 -30 -14 -61 -17 -53 -17 -67 -1 -67
4 0 15 27 24 60 11 38 22 60 32 60 18 0 18 -10 -1 -107 -8 -43 -15 -79 -15
-80 0 -2 6 -3 14 -3 9 0 17 27 26 90 11 76 16 90 31 90 17 0 18 -6 12 -60 -5
-52 -4 -60 11 -60 13 0 16 11 16 60 0 45 3 60 14 60 14 0 22 -38 29 -143 1
-20 7 -37 12 -37 10 1 10 85 -1 148 -4 27 -2 32 14 32 16 0 21 -10 27 -46 8
-58 14 -74 27 -74 10 0 8 14 -9 103 -4 20 -2 27 10 27 11 0 25 -30 47 -95 17
-52 36 -95 41 -95 14 0 11 16 -21 108 -24 67 -28 87 -18 94 9 6 21 -10 43 -57
17 -36 33 -65 38 -65 14 0 7 31 -18 80 -29 58 -30 60 -10 60 8 0 38 -40 67
-90 29 -49 56 -90 61 -90 17 0 4 34 -43 107 -54 84 -57 93 -37 93 8 0 33 -27
57 -60 24 -33 47 -60 52 -60 18 0 6 26 -33 72 -24 29 -39 55 -35 64 4 11 30
-11 94 -77 49 -51 91 -88 94 -83 4 5 -30 47 -73 93 -51 54 -76 88 -70 94 6 6
32 -10 72 -46 34 -31 66 -54 72 -50 10 6 -89 102 -105 103 -14 0 -8 18 8 24
10 4 45 -16 99 -59 88 -69 95 -72 95 -52 -1 6 -37 39 -81 71 -54 39 -77 62
-70 69 7 7 31 -3 75 -31 58 -36 76 -42 76 -22 0 3 -25 19 -55 35 -60 33 -65
40 -35 50 22 7 27 25 8 25 -7 0 -65 -32 -131 -71 -171 -103 -232 -123 -382
-123 -110 0 -127 3 -203 31 -45 18 -135 61 -200 97 -127 71 -182 90 -182 62z"/>
<path d="M311 536 c-14 -16 -5 -42 16 -50 20 -8 30 -1 48 35 l16 29 -35 0
c-18 0 -39 -6 -45 -14z"/>
</g>
</svg>
