<?xml version="1.0" standalone="no"?>
<!DOCTYPE svg PUBLIC "-//W3C//DTD SVG 20010904//EN"
 "http://www.w3.org/TR/2001/REC-SVG-20010904/DTD/svg10.dtd">
<svg version="1.0" xmlns="http://www.w3.org/2000/svg"
 width="134.000000pt" height="134.000000pt" viewBox="0 0 134.000000 134.000000"
 preserveAspectRatio="xMidYMid meet">
<metadata>
Created by potrace 1.10, written by Peter Selinger 2001-2011
</metadata>
<g transform="translate(0.000000,134.000000) scale(0.100000,-0.100000)"
fill="#000000" stroke="none">
<path d="M830 1328 c0 -7 -7 -85 -15 -173 -8 -88 -17 -214 -21 -280 -10 -163
-23 -199 -22 -60 0 61 -3 110 -8 110 -5 0 -14 -37 -21 -81 -34 -240 -21 0 22
424 4 42 2 52 -10 52 -11 0 -15 -11 -15 -39 l0 -39 -52 -7 c-105 -13 -226 -36
-392 -77 -182 -44 -216 -62 -216 -113 0 -14 11 -37 24 -50 43 -43 70 -43 201
4 142 51 414 135 419 130 2 -2 -3 -69 -10 -149 -7 -80 -13 -150 -13 -156 -1
-7 -19 -7 -61 0 -46 8 -75 6 -132 -6 -97 -22 -134 -36 -121 -49 6 -6 25 -4 54
7 48 18 227 30 246 17 9 -6 9 -42 0 -151 l-11 -142 -62 0 c-117 0 -240 53
-312 135 -24 28 -43 42 -47 35 -4 -6 -1 -18 6 -26 16 -20 7 -26 -23 -15 -37
14 -75 2 -108 -36 -41 -46 -42 -104 -2 -159 43 -59 136 -140 206 -179 70 -39
76 -41 76 -22 0 6 -30 27 -67 46 -75 40 -208 164 -219 205 -15 61 31 127 88
125 31 0 32 -1 11 -11 -13 -6 -23 -17 -23 -25 0 -18 7 -17 41 7 27 20 30 20
54 4 l25 -17 -37 -32 c-47 -40 -29 -54 20 -14 31 26 38 28 61 18 31 -15 32
-23 6 -56 -23 -30 -25 -43 -7 -43 8 0 22 16 33 35 19 35 37 42 63 26 13 -8 12
-15 -1 -50 -11 -27 -13 -43 -6 -47 13 -8 26 12 34 54 6 28 10 33 28 28 11 -3
24 -6 29 -6 4 0 7 -20 7 -45 0 -33 4 -45 15 -45 12 0 13 9 8 47 -5 41 -4 46
11 40 10 -4 24 -7 32 -7 10 0 14 -12 14 -40 0 -28 4 -40 14 -40 11 0 13 10 9
39 -3 23 -1 41 6 45 7 5 11 -5 11 -28 0 -46 17 -47 25 -2 5 25 13 35 30 39 22
4 24 0 27 -37 4 -49 22 -55 26 -8 l3 33 19 -23 c24 -30 36 -17 15 16 -16 24
-14 46 5 46 5 0 22 -14 39 -31 18 -17 36 -27 43 -23 8 5 2 15 -17 32 -28 23
-28 25 -10 38 16 12 23 11 51 -11 37 -29 44 -30 44 -12 0 8 -11 20 -25 27 -14
7 -25 17 -25 21 0 17 41 20 62 5 25 -17 58 -21 58 -7 0 5 -14 14 -32 20 -24 9
-29 14 -20 23 9 9 20 9 45 0 44 -16 50 -15 43 4 -5 14 -1 16 26 10 68 -13 127
-79 135 -150 8 -70 -23 -127 -95 -174 -122 -79 -326 -124 -476 -105 -42 5 -79
6 -82 1 -11 -17 35 -23 171 -23 119 0 151 4 215 23 140 45 243 109 277 176 39
75 9 187 -63 243 -31 23 -49 28 -111 31 -64 4 -72 6 -61 19 16 19 3 29 -112
86 -47 23 -87 43 -89 44 -4 2 17 277 25 331 5 32 6 33 42 26 67 -11 132 -33
193 -64 68 -34 81 -36 100 -14 12 15 9 21 -24 49 -49 43 -148 90 -231 112
l-68 18 4 53 c2 37 -1 52 -9 52 -7 0 -13 -6 -13 -12z m-98 -147 c-4 -26 -9
-30 -46 -36 -22 -4 -141 -40 -264 -81 -122 -41 -235 -74 -250 -74 -33 0 -77
41 -69 64 3 8 16 22 29 30 26 17 210 64 368 95 139 27 148 28 196 30 39 1 40
0 36 -28z m182 13 c91 -23 251 -112 234 -129 -4 -4 -22 2 -41 14 -50 31 -158
69 -216 77 -45 6 -51 9 -51 30 0 28 -4 28 74 8z m-156 -551 c-2 -71 -7 -131
-13 -135 -5 -4 -18 -8 -29 -8 -13 0 -16 5 -12 17 4 9 13 64 22 122 8 58 17
112 19 119 12 35 16 0 13 -115z m149 61 l85 -47 -36 -36 c-35 -36 -160 -111
-169 -101 -8 10 16 230 25 230 6 0 48 -21 95 -46z"/>
<path d="M705 398 c-2 -7 -6 -30 -10 -50 -5 -35 -9 -38 -39 -38 -56 0 -139
-19 -158 -37 -19 -17 -168 -219 -168 -228 0 -3 6 -5 14 -5 7 0 47 49 89 109
83 118 94 126 192 135 64 6 62 4 -32 -34 l-51 -22 -41 -110 c-38 -102 -45
-136 -21 -112 5 5 26 54 47 108 l38 100 50 19 c76 29 79 31 89 70 14 56 30 45
22 -14 -5 -40 -4 -50 6 -47 17 6 22 77 8 127 -11 40 -27 53 -35 29z"/>
</g>
</svg>
